name rise49.25peak52.1432fall72.8391.mot
datacolumns 19
datarows 15
range 6.45830300000000 6.48164000000000
endheader
time	ground_force1_vx	ground_force1_vy	ground_force1_vz	ground_force1_px	ground_force1_py	ground_force1_pz	ground_force2_vx	ground_force2_vy	ground_force2_vz	ground_force2_px	ground_force2_py	ground_force2_pz	ground_torque1_x	ground_torque1_y	ground_torque1_z	ground_torque2_x	ground_torque2_y	ground_torque2_z	
6.45830300000000	64.81139400000001	800.56238099999996	56.25923100000000	0.32120600000000	0.00000000000000	0.10470600000000	0.00000000000000	0.00000000000000	0.00000000000000	0.00000000000000	0.00000000000000	0.00000000000000	0.00000000000000	22.09440500000000	0.00000000000000	0.00000000000000	0.00000000000000	0.00000000000000	
6.45997500000000	64.14816100000000	802.81981199999996	56.39814000000000	0.32047300000000	0.00000000000000	0.10468900000000	0.00000000000000	0.00000000000000	0.00000000000000	0.00000000000000	0.00000000000000	0.00000000000000	0.00000000000000	22.20516200000000	0.00000000000000	0.00000000000000	0.00000000000000	0.00000000000000	
6.46164400000000	63.48120500000000	804.89557300000001	56.52756500000000	0.31975800000000	0.00000000000000	0.10467100000000	0.00000000000000	0.00000000000000	0.00000000000000	0.00000000000000	0.00000000000000	0.00000000000000	0.00000000000000	22.31217900000000	0.00000000000000	0.00000000000000	0.00000000000000	0.00000000000000	
6.46330900000000	62.81088900000000	806.78902400000004	56.64734100000000	0.31905800000000	0.00000000000000	0.10465300000000	0.00000000000000	0.00000000000000	0.00000000000000	0.00000000000000	0.00000000000000	0.00000000000000	0.00000000000000	22.41527100000000	0.00000000000000	0.00000000000000	0.00000000000000	0.00000000000000	
6.46497300000000	62.13753000000000	808.49982299999999	56.75727300000000	0.31837200000000	0.00000000000000	0.10463300000000	0.00000000000000	0.00000000000000	0.00000000000000	0.00000000000000	0.00000000000000	0.00000000000000	0.00000000000000	22.51423400000000	0.00000000000000	0.00000000000000	0.00000000000000	0.00000000000000	
6.46663700000000	61.46139800000000	810.02793699999995	56.85714300000000	0.31769800000000	0.00000000000000	0.10461200000000	0.00000000000000	0.00000000000000	0.00000000000000	0.00000000000000	0.00000000000000	0.00000000000000	0.00000000000000	22.60885200000000	0.00000000000000	0.00000000000000	0.00000000000000	0.00000000000000	
6.46831000000000	60.78271800000000	811.37364600000001	56.94671100000000	0.31703400000000	0.00000000000000	0.10459000000000	0.00000000000000	0.00000000000000	0.00000000000000	0.00000000000000	0.00000000000000	0.00000000000000	0.00000000000000	22.69889600000000	0.00000000000000	0.00000000000000	0.00000000000000	0.00000000000000	
6.46997300000000	60.10168100000000	812.53754800000002	57.02572200000000	0.31637800000000	0.00000000000000	0.10456700000000	0.00000000000000	0.00000000000000	0.00000000000000	0.00000000000000	0.00000000000000	0.00000000000000	0.00000000000000	22.78412400000000	0.00000000000000	0.00000000000000	0.00000000000000	0.00000000000000	
6.47163900000000	59.41844100000000	813.52056500000003	57.09390400000000	0.31572800000000	0.00000000000000	0.10454300000000	0.00000000000000	0.00000000000000	0.00000000000000	0.00000000000000	0.00000000000000	0.00000000000000	0.00000000000000	22.86428900000000	0.00000000000000	0.00000000000000	0.00000000000000	0.00000000000000	
6.47330600000000	58.73312000000000	814.32394499999998	57.15097700000000	0.31508100000000	0.00000000000000	0.10451800000000	0.00000000000000	0.00000000000000	0.00000000000000	0.00000000000000	0.00000000000000	0.00000000000000	0.00000000000000	22.93913700000000	0.00000000000000	0.00000000000000	0.00000000000000	0.00000000000000	
6.47497400000000	58.04581600000000	814.94925999999998	57.19665500000000	0.31443600000000	0.00000000000000	0.10449300000000	0.00000000000000	0.00000000000000	0.00000000000000	0.00000000000000	0.00000000000000	0.00000000000000	0.00000000000000	23.00841100000000	0.00000000000000	0.00000000000000	0.00000000000000	0.00000000000000	
6.47664100000000	57.35660000000000	815.39841200000001	57.23064800000000	0.31379000000000	0.00000000000000	0.10446700000000	0.00000000000000	0.00000000000000	0.00000000000000	0.00000000000000	0.00000000000000	0.00000000000000	0.00000000000000	23.07185500000000	0.00000000000000	0.00000000000000	0.00000000000000	0.00000000000000	
6.47830800000000	56.66552800000000	815.67362400000002	57.25267000000000	0.31314200000000	0.00000000000000	0.10444000000000	0.00000000000000	0.00000000000000	0.00000000000000	0.00000000000000	0.00000000000000	0.00000000000000	0.00000000000000	23.12921100000000	0.00000000000000	0.00000000000000	0.00000000000000	0.00000000000000	
6.47997100000000	55.97263800000000	815.77744299999995	57.26243900000000	0.31248900000000	0.00000000000000	0.10441300000000	0.00000000000000	0.00000000000000	0.00000000000000	0.00000000000000	0.00000000000000	0.00000000000000	0.00000000000000	23.18022900000000	0.00000000000000	0.00000000000000	0.00000000000000	0.00000000000000	
6.48164000000000	55.27795900000000	815.71273199999996	57.25968400000000	0.31182900000000	0.00000000000000	0.10438500000000	0.00000000000000	0.00000000000000	0.00000000000000	0.00000000000000	0.00000000000000	0.00000000000000	0.00000000000000	23.22466500000000	0.00000000000000	0.00000000000000	0.00000000000000	0.00000000000000	
